<?xml version="1.0" encoding="utf-8"?>
<!-- Generator: Adobe Illustrator 24.2.1, SVG Export Plug-In . SVG Version: 6.00 Build 0)  -->
<svg version="1.1" id="Ebene_1" xmlns="http://www.w3.org/2000/svg" xmlns:xlink="http://www.w3.org/1999/xlink" x="0px" y="0px"
	 viewBox="0 0 283.5 283.5" style="enable-background:new 0 0 283.5 283.5;" xml:space="preserve">
<style type="text/css">
	.st0{fill:#020203;}
</style>
<g>
	<path class="st0" d="M179.5,166.2c-43.7,0-71.1,7.2-86.2,22.6c-14.2,14.5-14.2,32.7-14.2,47.3l10.2,0.9l10.2-0.9
		c0-12.6,0-24.5,8.3-33c10.7-10.9,34.8-16.4,71.6-16.4c81.2,0,81.2,25.6,81.2,50.3c0,5.7,4.6,10.2,10.2,10.2s10.2-4.6,10.2-10.2
		C281.1,202.7,273.2,166.2,179.5,166.2z"/>
	<path class="st0" d="M180.1,150.4c29.7,0,53.9-24.2,53.9-53.9s-24.2-53.9-53.9-53.9c-29.7,0-53.9,24.2-53.9,53.9
		S150.4,150.4,180.1,150.4z M180.1,63.1c18.4,0,33.4,15,33.4,33.4s-15,33.4-33.4,33.4s-33.4-15-33.4-33.4S161.7,63.1,180.1,63.1z"/>
	<path class="st0" d="M88,137.9c5.7,0,10.2-4.6,10.2-10.2s-4.6-10.2-10.2-10.2H60.2V89.7c0-5.7-4.6-10.2-10.2-10.2
		S39.8,84,39.8,89.7v27.8H12c-5.7,0-10.2,4.6-10.2,10.2s4.6,10.2,10.2,10.2h27.8v27.8c0,5.7,4.6,10.2,10.2,10.2s10.2-4.6,10.2-10.2
		v-27.8H88z"/>
</g>
</svg>
